<svg width="79" height="79" viewBox="0 0 79 79" fill="none" xmlns="http://www.w3.org/2000/svg">
<circle cx="39.5" cy="39.5" r="39.5" fill="url(#paint0_linear_207_55)"/>
<path d="M31.7533 24C33.4417 24.0266 35.0933 24.5034 36.5413 25.3823C37.9892 26.2612 39.1823 27.5111 40 29.0057C40.8177 27.5111 42.0108 26.2612 43.4587 25.3823C44.9067 24.5034 46.5583 24.0266 48.2467 24C50.9382 24.1183 53.474 25.3094 55.3002 27.3132C57.1263 29.317 58.0943 31.9704 57.9927 34.694C57.9927 41.5912 50.8166 49.124 44.7981 54.2313C43.4543 55.3737 41.7553 56 40 56C38.2447 56 36.5457 55.3737 35.2019 54.2313C29.1834 49.124 22.0073 41.5912 22.0073 34.694C21.9057 31.9704 22.8737 29.317 24.6998 27.3132C26.526 25.3094 29.0618 24.1183 31.7533 24Z" fill="white"/>
<defs>
<linearGradient id="paint0_linear_207_55" x1="39.5" y1="0" x2="39.5" y2="79" gradientUnits="userSpaceOnUse">
<stop stop-color="#8018BD"/>
<stop offset="0.5" stop-color="#CC22FF"/>
<stop offset="1" stop-color="#8018BD"/>
</linearGradient>
</defs>
</svg>
