<svg width="79" height="79" viewBox="0 0 79 79" fill="none" xmlns="http://www.w3.org/2000/svg">
<circle cx="39.5" cy="39.5" r="39.5" fill="#5A5A5A"/>
<path d="M36.8868 40.0035L26.4507 27.2634C25.7478 26.4049 25.8814 25.1465 26.7515 24.452C27.6216 23.7562 28.8938 23.8908 29.5966 24.7493L39.4905 36.8268L49.3843 24.7493C51.0585 22.7244 54.1869 25.2252 52.5303 27.2648L42.0941 40.0048L52.5303 52.7435C53.2332 53.602 53.0996 54.8604 52.2295 55.5549C51.3661 56.2468 50.0899 56.1202 49.3843 55.2577L39.4905 43.1802L29.5966 55.2577C28.8897 56.1202 27.6135 56.2468 26.7515 55.5549C25.8814 54.8604 25.7478 53.6007 26.4507 52.7435L36.8868 40.0035Z" fill="url(#paint0_linear_207_54)"/>
<defs>
<linearGradient id="paint0_linear_207_54" x1="39.5" y1="24" x2="39.5" y2="56" gradientUnits="userSpaceOnUse">
<stop stop-color="#8D1DD0"/>
<stop offset="0.5" stop-color="#AF27FF"/>
<stop offset="1" stop-color="#8D1DD0"/>
</linearGradient>
</defs>
</svg>
